<?xml version="1.0" encoding="utf-8" standalone="no"?>
<!DOCTYPE svg PUBLIC "-//W3C//DTD SVG 1.1//EN"
  "http://www.w3.org/Graphics/SVG/1.1/DTD/svg11.dtd">
<!-- Created with matplotlib (https://matplotlib.org/) -->
<svg height="588.35625pt" version="1.1" viewBox="0 0 610.678125 588.35625" width="610.678125pt" xmlns="http://www.w3.org/2000/svg" xmlns:xlink="http://www.w3.org/1999/xlink">
 <defs>
  <style type="text/css">
*{stroke-linecap:butt;stroke-linejoin:round;}
  </style>
 </defs>
 <g id="figure_1">
  <g id="patch_1">
   <path d="M 0 588.35625 
L 610.678125 588.35625 
L 610.678125 0 
L 0 0 
z
" style="fill:#ffffff;"/>
  </g>
  <g id="axes_1">
   <g id="patch_2">
    <path d="M 45.478125 550.8 
L 603.478125 550.8 
L 603.478125 7.2 
L 45.478125 7.2 
z
" style="fill:#ffffff;"/>
   </g>
   <g id="PathCollection_1">
    <defs>
     <path d="M -0 2.236068 
L 2.236068 -2.236068 
L -2.236068 -2.236068 
z
" id="mf0691bde8e" style="stroke:#1f77b4;"/>
    </defs>
    <g clip-path="url(#pe0d679883b)">
     <use style="fill:#1f77b4;stroke:#1f77b4;" x="71.15961" xlink:href="#mf0691bde8e" y="374.085267"/>
     <use style="fill:#1f77b4;stroke:#1f77b4;" x="111.300929" xlink:href="#mf0691bde8e" y="339.780977"/>
     <use style="fill:#1f77b4;stroke:#1f77b4;" x="145.239931" xlink:href="#mf0691bde8e" y="320.507198"/>
     <use style="fill:#1f77b4;stroke:#1f77b4;" x="174.639231" xlink:href="#mf0691bde8e" y="303.315729"/>
     <use style="fill:#1f77b4;stroke:#1f77b4;" x="200.571252" xlink:href="#mf0691bde8e" y="280.200135"/>
     <use style="fill:#1f77b4;stroke:#1f77b4;" x="223.768235" xlink:href="#mf0691bde8e" y="261.338187"/>
     <use style="fill:#1f77b4;stroke:#1f77b4;" x="272.897239" xlink:href="#mf0691bde8e" y="215.951772"/>
     <use style="fill:#1f77b4;stroke:#1f77b4;" x="313.038558" xlink:href="#mf0691bde8e" y="195.187425"/>
     <use style="fill:#1f77b4;stroke:#1f77b4;" x="346.977559" xlink:href="#mf0691bde8e" y="166.401031"/>
     <use style="fill:#1f77b4;stroke:#1f77b4;" x="376.37686" xlink:href="#mf0691bde8e" y="153.168067"/>
     <use style="fill:#1f77b4;stroke:#1f77b4;" x="402.308881" xlink:href="#mf0691bde8e" y="135.88282"/>
     <use style="fill:#1f77b4;stroke:#1f77b4;" x="425.505864" xlink:href="#mf0691bde8e" y="126.755721"/>
     <use style="fill:#1f77b4;stroke:#1f77b4;" x="446.490087" xlink:href="#mf0691bde8e" y="114.074761"/>
     <use style="fill:#1f77b4;stroke:#1f77b4;" x="465.647183" xlink:href="#mf0691bde8e" y="107.878789"/>
     <use style="fill:#1f77b4;stroke:#1f77b4;" x="483.270002" xlink:href="#mf0691bde8e" y="98.364798"/>
     <use style="fill:#1f77b4;stroke:#1f77b4;" x="499.586184" xlink:href="#mf0691bde8e" y="91.33292"/>
     <use style="fill:#1f77b4;stroke:#1f77b4;" x="514.776187" xlink:href="#mf0691bde8e" y="82.094577"/>
     <use style="fill:#1f77b4;stroke:#1f77b4;" x="528.985485" xlink:href="#mf0691bde8e" y="76.406394"/>
    </g>
   </g>
   <g id="matplotlib.axis_1">
    <g id="xtick_1">
     <g id="line2d_1">
      <defs>
       <path d="M 0 0 
L 0 3.5 
" id="m02d407fb4c" style="stroke:#000000;stroke-width:0.8;"/>
      </defs>
      <g>
       <use style="stroke:#000000;stroke-width:0.8;" x="223.768235" xlink:href="#m02d407fb4c" y="550.8"/>
      </g>
     </g>
     <g id="text_1">
      <!-- $\mathdefault{10^{0}}$ -->
      <defs>
       <path d="M 12.40625 8.296875 
L 28.515625 8.296875 
L 28.515625 63.921875 
L 10.984375 60.40625 
L 10.984375 69.390625 
L 28.421875 72.90625 
L 38.28125 72.90625 
L 38.28125 8.296875 
L 54.390625 8.296875 
L 54.390625 0 
L 12.40625 0 
z
" id="DejaVuSans-49"/>
       <path d="M 31.78125 66.40625 
Q 24.171875 66.40625 20.328125 58.90625 
Q 16.5 51.421875 16.5 36.375 
Q 16.5 21.390625 20.328125 13.890625 
Q 24.171875 6.390625 31.78125 6.390625 
Q 39.453125 6.390625 43.28125 13.890625 
Q 47.125 21.390625 47.125 36.375 
Q 47.125 51.421875 43.28125 58.90625 
Q 39.453125 66.40625 31.78125 66.40625 
z
M 31.78125 74.21875 
Q 44.046875 74.21875 50.515625 64.515625 
Q 56.984375 54.828125 56.984375 36.375 
Q 56.984375 17.96875 50.515625 8.265625 
Q 44.046875 -1.421875 31.78125 -1.421875 
Q 19.53125 -1.421875 13.0625 8.265625 
Q 6.59375 17.96875 6.59375 36.375 
Q 6.59375 54.828125 13.0625 64.515625 
Q 19.53125 74.21875 31.78125 74.21875 
z
" id="DejaVuSans-48"/>
      </defs>
      <g transform="translate(214.968235 565.398438)scale(0.1 -0.1)">
       <use transform="translate(0 0.765625)" xlink:href="#DejaVuSans-49"/>
       <use transform="translate(63.623047 0.765625)" xlink:href="#DejaVuSans-48"/>
       <use transform="translate(128.203125 39.046875)scale(0.7)" xlink:href="#DejaVuSans-48"/>
      </g>
     </g>
    </g>
    <g id="xtick_2">
     <g id="line2d_2">
      <defs>
       <path d="M 0 0 
L 0 2 
" id="mfb4572fe79" style="stroke:#000000;stroke-width:0.6;"/>
      </defs>
      <g>
       <use style="stroke:#000000;stroke-width:0.6;" x="71.15961" xlink:href="#mfb4572fe79" y="550.8"/>
      </g>
     </g>
    </g>
    <g id="xtick_3">
     <g id="line2d_3">
      <g>
       <use style="stroke:#000000;stroke-width:0.6;" x="111.300929" xlink:href="#mfb4572fe79" y="550.8"/>
      </g>
     </g>
    </g>
    <g id="xtick_4">
     <g id="line2d_4">
      <g>
       <use style="stroke:#000000;stroke-width:0.6;" x="145.239931" xlink:href="#mfb4572fe79" y="550.8"/>
      </g>
     </g>
    </g>
    <g id="xtick_5">
     <g id="line2d_5">
      <g>
       <use style="stroke:#000000;stroke-width:0.6;" x="174.639231" xlink:href="#mfb4572fe79" y="550.8"/>
      </g>
     </g>
    </g>
    <g id="xtick_6">
     <g id="line2d_6">
      <g>
       <use style="stroke:#000000;stroke-width:0.6;" x="200.571252" xlink:href="#mfb4572fe79" y="550.8"/>
      </g>
     </g>
    </g>
    <g id="xtick_7">
     <g id="line2d_7">
      <g>
       <use style="stroke:#000000;stroke-width:0.6;" x="376.37686" xlink:href="#mfb4572fe79" y="550.8"/>
      </g>
     </g>
    </g>
    <g id="xtick_8">
     <g id="line2d_8">
      <g>
       <use style="stroke:#000000;stroke-width:0.6;" x="465.647183" xlink:href="#mfb4572fe79" y="550.8"/>
      </g>
     </g>
    </g>
    <g id="xtick_9">
     <g id="line2d_9">
      <g>
       <use style="stroke:#000000;stroke-width:0.6;" x="528.985485" xlink:href="#mfb4572fe79" y="550.8"/>
      </g>
     </g>
    </g>
    <g id="xtick_10">
     <g id="line2d_10">
      <g>
       <use style="stroke:#000000;stroke-width:0.6;" x="578.114489" xlink:href="#mfb4572fe79" y="550.8"/>
      </g>
     </g>
    </g>
    <g id="text_2">
     <!-- Ratio -->
     <defs>
      <path d="M 44.390625 34.1875 
Q 47.5625 33.109375 50.5625 29.59375 
Q 53.5625 26.078125 56.59375 19.921875 
L 66.609375 0 
L 56 0 
L 46.6875 18.703125 
Q 43.0625 26.03125 39.671875 28.421875 
Q 36.28125 30.8125 30.421875 30.8125 
L 19.671875 30.8125 
L 19.671875 0 
L 9.8125 0 
L 9.8125 72.90625 
L 32.078125 72.90625 
Q 44.578125 72.90625 50.734375 67.671875 
Q 56.890625 62.453125 56.890625 51.90625 
Q 56.890625 45.015625 53.6875 40.46875 
Q 50.484375 35.9375 44.390625 34.1875 
z
M 19.671875 64.796875 
L 19.671875 38.921875 
L 32.078125 38.921875 
Q 39.203125 38.921875 42.84375 42.21875 
Q 46.484375 45.515625 46.484375 51.90625 
Q 46.484375 58.296875 42.84375 61.546875 
Q 39.203125 64.796875 32.078125 64.796875 
z
" id="DejaVuSans-82"/>
      <path d="M 34.28125 27.484375 
Q 23.390625 27.484375 19.1875 25 
Q 14.984375 22.515625 14.984375 16.5 
Q 14.984375 11.71875 18.140625 8.90625 
Q 21.296875 6.109375 26.703125 6.109375 
Q 34.1875 6.109375 38.703125 11.40625 
Q 43.21875 16.703125 43.21875 25.484375 
L 43.21875 27.484375 
z
M 52.203125 31.203125 
L 52.203125 0 
L 43.21875 0 
L 43.21875 8.296875 
Q 40.140625 3.328125 35.546875 0.953125 
Q 30.953125 -1.421875 24.3125 -1.421875 
Q 15.921875 -1.421875 10.953125 3.296875 
Q 6 8.015625 6 15.921875 
Q 6 25.140625 12.171875 29.828125 
Q 18.359375 34.515625 30.609375 34.515625 
L 43.21875 34.515625 
L 43.21875 35.40625 
Q 43.21875 41.609375 39.140625 45 
Q 35.0625 48.390625 27.6875 48.390625 
Q 23 48.390625 18.546875 47.265625 
Q 14.109375 46.140625 10.015625 43.890625 
L 10.015625 52.203125 
Q 14.9375 54.109375 19.578125 55.046875 
Q 24.21875 56 28.609375 56 
Q 40.484375 56 46.34375 49.84375 
Q 52.203125 43.703125 52.203125 31.203125 
z
" id="DejaVuSans-97"/>
      <path d="M 18.3125 70.21875 
L 18.3125 54.6875 
L 36.8125 54.6875 
L 36.8125 47.703125 
L 18.3125 47.703125 
L 18.3125 18.015625 
Q 18.3125 11.328125 20.140625 9.421875 
Q 21.96875 7.515625 27.59375 7.515625 
L 36.8125 7.515625 
L 36.8125 0 
L 27.59375 0 
Q 17.1875 0 13.234375 3.875 
Q 9.28125 7.765625 9.28125 18.015625 
L 9.28125 47.703125 
L 2.6875 47.703125 
L 2.6875 54.6875 
L 9.28125 54.6875 
L 9.28125 70.21875 
z
" id="DejaVuSans-116"/>
      <path d="M 9.421875 54.6875 
L 18.40625 54.6875 
L 18.40625 0 
L 9.421875 0 
z
M 9.421875 75.984375 
L 18.40625 75.984375 
L 18.40625 64.59375 
L 9.421875 64.59375 
z
" id="DejaVuSans-105"/>
      <path d="M 30.609375 48.390625 
Q 23.390625 48.390625 19.1875 42.75 
Q 14.984375 37.109375 14.984375 27.296875 
Q 14.984375 17.484375 19.15625 11.84375 
Q 23.34375 6.203125 30.609375 6.203125 
Q 37.796875 6.203125 41.984375 11.859375 
Q 46.1875 17.53125 46.1875 27.296875 
Q 46.1875 37.015625 41.984375 42.703125 
Q 37.796875 48.390625 30.609375 48.390625 
z
M 30.609375 56 
Q 42.328125 56 49.015625 48.375 
Q 55.71875 40.765625 55.71875 27.296875 
Q 55.71875 13.875 49.015625 6.21875 
Q 42.328125 -1.421875 30.609375 -1.421875 
Q 18.84375 -1.421875 12.171875 6.21875 
Q 5.515625 13.875 5.515625 27.296875 
Q 5.515625 40.765625 12.171875 48.375 
Q 18.84375 56 30.609375 56 
z
" id="DejaVuSans-111"/>
     </defs>
     <g transform="translate(311.532812 579.076563)scale(0.1 -0.1)">
      <use xlink:href="#DejaVuSans-82"/>
      <use x="69.451172" xlink:href="#DejaVuSans-97"/>
      <use x="130.730469" xlink:href="#DejaVuSans-116"/>
      <use x="169.939453" xlink:href="#DejaVuSans-105"/>
      <use x="197.722656" xlink:href="#DejaVuSans-111"/>
     </g>
    </g>
   </g>
   <g id="matplotlib.axis_2">
    <g id="ytick_1">
     <g id="line2d_11">
      <defs>
       <path d="M 0 0 
L -3.5 0 
" id="md0f3bbdbfa" style="stroke:#000000;stroke-width:0.8;"/>
      </defs>
      <g>
       <use style="stroke:#000000;stroke-width:0.8;" x="45.478125" xlink:href="#md0f3bbdbfa" y="441.161824"/>
      </g>
     </g>
     <g id="text_3">
      <!-- $\mathdefault{10^{0}}$ -->
      <g transform="translate(20.878125 444.961043)scale(0.1 -0.1)">
       <use transform="translate(0 0.765625)" xlink:href="#DejaVuSans-49"/>
       <use transform="translate(63.623047 0.765625)" xlink:href="#DejaVuSans-48"/>
       <use transform="translate(128.203125 39.046875)scale(0.7)" xlink:href="#DejaVuSans-48"/>
      </g>
     </g>
    </g>
    <g id="ytick_2">
     <g id="line2d_12">
      <g>
       <use style="stroke:#000000;stroke-width:0.8;" x="45.478125" xlink:href="#md0f3bbdbfa" y="58.337557"/>
      </g>
     </g>
     <g id="text_4">
      <!-- $\mathdefault{10^{1}}$ -->
      <g transform="translate(20.878125 62.136776)scale(0.1 -0.1)">
       <use transform="translate(0 0.684375)" xlink:href="#DejaVuSans-49"/>
       <use transform="translate(63.623047 0.684375)" xlink:href="#DejaVuSans-48"/>
       <use transform="translate(128.203125 38.965625)scale(0.7)" xlink:href="#DejaVuSans-49"/>
      </g>
     </g>
    </g>
    <g id="ytick_3">
     <g id="line2d_13">
      <defs>
       <path d="M 0 0 
L -2 0 
" id="me129f02a5d" style="stroke:#000000;stroke-width:0.6;"/>
      </defs>
      <g>
       <use style="stroke:#000000;stroke-width:0.6;" x="45.478125" xlink:href="#me129f02a5d" y="526.090909"/>
      </g>
     </g>
    </g>
    <g id="ytick_4">
     <g id="line2d_14">
      <g>
       <use style="stroke:#000000;stroke-width:0.6;" x="45.478125" xlink:href="#me129f02a5d" y="500.462053"/>
      </g>
     </g>
    </g>
    <g id="ytick_5">
     <g id="line2d_15">
      <g>
       <use style="stroke:#000000;stroke-width:0.6;" x="45.478125" xlink:href="#me129f02a5d" y="478.261329"/>
      </g>
     </g>
    </g>
    <g id="ytick_6">
     <g id="line2d_16">
      <g>
       <use style="stroke:#000000;stroke-width:0.6;" x="45.478125" xlink:href="#me129f02a5d" y="458.678902"/>
      </g>
     </g>
    </g>
    <g id="ytick_7">
     <g id="line2d_17">
      <g>
       <use style="stroke:#000000;stroke-width:0.6;" x="45.478125" xlink:href="#me129f02a5d" y="325.920237"/>
      </g>
     </g>
    </g>
    <g id="ytick_8">
     <g id="line2d_18">
      <g>
       <use style="stroke:#000000;stroke-width:0.6;" x="45.478125" xlink:href="#me129f02a5d" y="258.50823"/>
      </g>
     </g>
    </g>
    <g id="ytick_9">
     <g id="line2d_19">
      <g>
       <use style="stroke:#000000;stroke-width:0.6;" x="45.478125" xlink:href="#me129f02a5d" y="210.67865"/>
      </g>
     </g>
    </g>
    <g id="ytick_10">
     <g id="line2d_20">
      <g>
       <use style="stroke:#000000;stroke-width:0.6;" x="45.478125" xlink:href="#me129f02a5d" y="173.579145"/>
      </g>
     </g>
    </g>
    <g id="ytick_11">
     <g id="line2d_21">
      <g>
       <use style="stroke:#000000;stroke-width:0.6;" x="45.478125" xlink:href="#me129f02a5d" y="143.266642"/>
      </g>
     </g>
    </g>
    <g id="ytick_12">
     <g id="line2d_22">
      <g>
       <use style="stroke:#000000;stroke-width:0.6;" x="45.478125" xlink:href="#me129f02a5d" y="117.637787"/>
      </g>
     </g>
    </g>
    <g id="ytick_13">
     <g id="line2d_23">
      <g>
       <use style="stroke:#000000;stroke-width:0.6;" x="45.478125" xlink:href="#me129f02a5d" y="95.437062"/>
      </g>
     </g>
    </g>
    <g id="ytick_14">
     <g id="line2d_24">
      <g>
       <use style="stroke:#000000;stroke-width:0.6;" x="45.478125" xlink:href="#me129f02a5d" y="75.854635"/>
      </g>
     </g>
    </g>
    <g id="text_5">
     <!-- Normalized Runoff Distance -->
     <defs>
      <path d="M 9.8125 72.90625 
L 23.09375 72.90625 
L 55.421875 11.921875 
L 55.421875 72.90625 
L 64.984375 72.90625 
L 64.984375 0 
L 51.703125 0 
L 19.390625 60.984375 
L 19.390625 0 
L 9.8125 0 
z
" id="DejaVuSans-78"/>
      <path d="M 41.109375 46.296875 
Q 39.59375 47.171875 37.8125 47.578125 
Q 36.03125 48 33.890625 48 
Q 26.265625 48 22.1875 43.046875 
Q 18.109375 38.09375 18.109375 28.8125 
L 18.109375 0 
L 9.078125 0 
L 9.078125 54.6875 
L 18.109375 54.6875 
L 18.109375 46.1875 
Q 20.953125 51.171875 25.484375 53.578125 
Q 30.03125 56 36.53125 56 
Q 37.453125 56 38.578125 55.875 
Q 39.703125 55.765625 41.0625 55.515625 
z
" id="DejaVuSans-114"/>
      <path d="M 52 44.1875 
Q 55.375 50.25 60.0625 53.125 
Q 64.75 56 71.09375 56 
Q 79.640625 56 84.28125 50.015625 
Q 88.921875 44.046875 88.921875 33.015625 
L 88.921875 0 
L 79.890625 0 
L 79.890625 32.71875 
Q 79.890625 40.578125 77.09375 44.375 
Q 74.3125 48.1875 68.609375 48.1875 
Q 61.625 48.1875 57.5625 43.546875 
Q 53.515625 38.921875 53.515625 30.90625 
L 53.515625 0 
L 44.484375 0 
L 44.484375 32.71875 
Q 44.484375 40.625 41.703125 44.40625 
Q 38.921875 48.1875 33.109375 48.1875 
Q 26.21875 48.1875 22.15625 43.53125 
Q 18.109375 38.875 18.109375 30.90625 
L 18.109375 0 
L 9.078125 0 
L 9.078125 54.6875 
L 18.109375 54.6875 
L 18.109375 46.1875 
Q 21.1875 51.21875 25.484375 53.609375 
Q 29.78125 56 35.6875 56 
Q 41.65625 56 45.828125 52.96875 
Q 50 49.953125 52 44.1875 
z
" id="DejaVuSans-109"/>
      <path d="M 9.421875 75.984375 
L 18.40625 75.984375 
L 18.40625 0 
L 9.421875 0 
z
" id="DejaVuSans-108"/>
      <path d="M 5.515625 54.6875 
L 48.1875 54.6875 
L 48.1875 46.484375 
L 14.40625 7.171875 
L 48.1875 7.171875 
L 48.1875 0 
L 4.296875 0 
L 4.296875 8.203125 
L 38.09375 47.515625 
L 5.515625 47.515625 
z
" id="DejaVuSans-122"/>
      <path d="M 56.203125 29.59375 
L 56.203125 25.203125 
L 14.890625 25.203125 
Q 15.484375 15.921875 20.484375 11.0625 
Q 25.484375 6.203125 34.421875 6.203125 
Q 39.59375 6.203125 44.453125 7.46875 
Q 49.3125 8.734375 54.109375 11.28125 
L 54.109375 2.78125 
Q 49.265625 0.734375 44.1875 -0.34375 
Q 39.109375 -1.421875 33.890625 -1.421875 
Q 20.796875 -1.421875 13.15625 6.1875 
Q 5.515625 13.8125 5.515625 26.8125 
Q 5.515625 40.234375 12.765625 48.109375 
Q 20.015625 56 32.328125 56 
Q 43.359375 56 49.78125 48.890625 
Q 56.203125 41.796875 56.203125 29.59375 
z
M 47.21875 32.234375 
Q 47.125 39.59375 43.09375 43.984375 
Q 39.0625 48.390625 32.421875 48.390625 
Q 24.90625 48.390625 20.390625 44.140625 
Q 15.875 39.890625 15.1875 32.171875 
z
" id="DejaVuSans-101"/>
      <path d="M 45.40625 46.390625 
L 45.40625 75.984375 
L 54.390625 75.984375 
L 54.390625 0 
L 45.40625 0 
L 45.40625 8.203125 
Q 42.578125 3.328125 38.25 0.953125 
Q 33.9375 -1.421875 27.875 -1.421875 
Q 17.96875 -1.421875 11.734375 6.484375 
Q 5.515625 14.40625 5.515625 27.296875 
Q 5.515625 40.1875 11.734375 48.09375 
Q 17.96875 56 27.875 56 
Q 33.9375 56 38.25 53.625 
Q 42.578125 51.265625 45.40625 46.390625 
z
M 14.796875 27.296875 
Q 14.796875 17.390625 18.875 11.75 
Q 22.953125 6.109375 30.078125 6.109375 
Q 37.203125 6.109375 41.296875 11.75 
Q 45.40625 17.390625 45.40625 27.296875 
Q 45.40625 37.203125 41.296875 42.84375 
Q 37.203125 48.484375 30.078125 48.484375 
Q 22.953125 48.484375 18.875 42.84375 
Q 14.796875 37.203125 14.796875 27.296875 
z
" id="DejaVuSans-100"/>
      <path id="DejaVuSans-32"/>
      <path d="M 8.5 21.578125 
L 8.5 54.6875 
L 17.484375 54.6875 
L 17.484375 21.921875 
Q 17.484375 14.15625 20.5 10.265625 
Q 23.53125 6.390625 29.59375 6.390625 
Q 36.859375 6.390625 41.078125 11.03125 
Q 45.3125 15.671875 45.3125 23.6875 
L 45.3125 54.6875 
L 54.296875 54.6875 
L 54.296875 0 
L 45.3125 0 
L 45.3125 8.40625 
Q 42.046875 3.421875 37.71875 1 
Q 33.40625 -1.421875 27.6875 -1.421875 
Q 18.265625 -1.421875 13.375 4.4375 
Q 8.5 10.296875 8.5 21.578125 
z
M 31.109375 56 
z
" id="DejaVuSans-117"/>
      <path d="M 54.890625 33.015625 
L 54.890625 0 
L 45.90625 0 
L 45.90625 32.71875 
Q 45.90625 40.484375 42.875 44.328125 
Q 39.84375 48.1875 33.796875 48.1875 
Q 26.515625 48.1875 22.3125 43.546875 
Q 18.109375 38.921875 18.109375 30.90625 
L 18.109375 0 
L 9.078125 0 
L 9.078125 54.6875 
L 18.109375 54.6875 
L 18.109375 46.1875 
Q 21.34375 51.125 25.703125 53.5625 
Q 30.078125 56 35.796875 56 
Q 45.21875 56 50.046875 50.171875 
Q 54.890625 44.34375 54.890625 33.015625 
z
" id="DejaVuSans-110"/>
      <path d="M 37.109375 75.984375 
L 37.109375 68.5 
L 28.515625 68.5 
Q 23.6875 68.5 21.796875 66.546875 
Q 19.921875 64.59375 19.921875 59.515625 
L 19.921875 54.6875 
L 34.71875 54.6875 
L 34.71875 47.703125 
L 19.921875 47.703125 
L 19.921875 0 
L 10.890625 0 
L 10.890625 47.703125 
L 2.296875 47.703125 
L 2.296875 54.6875 
L 10.890625 54.6875 
L 10.890625 58.5 
Q 10.890625 67.625 15.140625 71.796875 
Q 19.390625 75.984375 28.609375 75.984375 
z
" id="DejaVuSans-102"/>
      <path d="M 19.671875 64.796875 
L 19.671875 8.109375 
L 31.59375 8.109375 
Q 46.6875 8.109375 53.6875 14.9375 
Q 60.6875 21.78125 60.6875 36.53125 
Q 60.6875 51.171875 53.6875 57.984375 
Q 46.6875 64.796875 31.59375 64.796875 
z
M 9.8125 72.90625 
L 30.078125 72.90625 
Q 51.265625 72.90625 61.171875 64.09375 
Q 71.09375 55.28125 71.09375 36.53125 
Q 71.09375 17.671875 61.125 8.828125 
Q 51.171875 0 30.078125 0 
L 9.8125 0 
z
" id="DejaVuSans-68"/>
      <path d="M 44.28125 53.078125 
L 44.28125 44.578125 
Q 40.484375 46.53125 36.375 47.5 
Q 32.28125 48.484375 27.875 48.484375 
Q 21.1875 48.484375 17.84375 46.4375 
Q 14.5 44.390625 14.5 40.28125 
Q 14.5 37.15625 16.890625 35.375 
Q 19.28125 33.59375 26.515625 31.984375 
L 29.59375 31.296875 
Q 39.15625 29.25 43.1875 25.515625 
Q 47.21875 21.78125 47.21875 15.09375 
Q 47.21875 7.46875 41.1875 3.015625 
Q 35.15625 -1.421875 24.609375 -1.421875 
Q 20.21875 -1.421875 15.453125 -0.5625 
Q 10.6875 0.296875 5.421875 2 
L 5.421875 11.28125 
Q 10.40625 8.6875 15.234375 7.390625 
Q 20.0625 6.109375 24.8125 6.109375 
Q 31.15625 6.109375 34.5625 8.28125 
Q 37.984375 10.453125 37.984375 14.40625 
Q 37.984375 18.0625 35.515625 20.015625 
Q 33.0625 21.96875 24.703125 23.78125 
L 21.578125 24.515625 
Q 13.234375 26.265625 9.515625 29.90625 
Q 5.8125 33.546875 5.8125 39.890625 
Q 5.8125 47.609375 11.28125 51.796875 
Q 16.75 56 26.8125 56 
Q 31.78125 56 36.171875 55.265625 
Q 40.578125 54.546875 44.28125 53.078125 
z
" id="DejaVuSans-115"/>
      <path d="M 48.78125 52.59375 
L 48.78125 44.1875 
Q 44.96875 46.296875 41.140625 47.34375 
Q 37.3125 48.390625 33.40625 48.390625 
Q 24.65625 48.390625 19.8125 42.84375 
Q 14.984375 37.3125 14.984375 27.296875 
Q 14.984375 17.28125 19.8125 11.734375 
Q 24.65625 6.203125 33.40625 6.203125 
Q 37.3125 6.203125 41.140625 7.25 
Q 44.96875 8.296875 48.78125 10.40625 
L 48.78125 2.09375 
Q 45.015625 0.34375 40.984375 -0.53125 
Q 36.96875 -1.421875 32.421875 -1.421875 
Q 20.0625 -1.421875 12.78125 6.34375 
Q 5.515625 14.109375 5.515625 27.296875 
Q 5.515625 40.671875 12.859375 48.328125 
Q 20.21875 56 33.015625 56 
Q 37.15625 56 41.109375 55.140625 
Q 45.0625 54.296875 48.78125 52.59375 
z
" id="DejaVuSans-99"/>
     </defs>
     <g transform="translate(14.798438 348.871094)rotate(-90)scale(0.1 -0.1)">
      <use xlink:href="#DejaVuSans-78"/>
      <use x="74.804688" xlink:href="#DejaVuSans-111"/>
      <use x="135.986328" xlink:href="#DejaVuSans-114"/>
      <use x="177.083984" xlink:href="#DejaVuSans-109"/>
      <use x="274.496094" xlink:href="#DejaVuSans-97"/>
      <use x="335.775391" xlink:href="#DejaVuSans-108"/>
      <use x="363.558594" xlink:href="#DejaVuSans-105"/>
      <use x="391.341797" xlink:href="#DejaVuSans-122"/>
      <use x="443.832031" xlink:href="#DejaVuSans-101"/>
      <use x="505.355469" xlink:href="#DejaVuSans-100"/>
      <use x="568.832031" xlink:href="#DejaVuSans-32"/>
      <use x="600.619141" xlink:href="#DejaVuSans-82"/>
      <use x="670.039062" xlink:href="#DejaVuSans-117"/>
      <use x="733.417969" xlink:href="#DejaVuSans-110"/>
      <use x="796.796875" xlink:href="#DejaVuSans-111"/>
      <use x="857.978516" xlink:href="#DejaVuSans-102"/>
      <use x="893.183594" xlink:href="#DejaVuSans-102"/>
      <use x="928.388672" xlink:href="#DejaVuSans-32"/>
      <use x="960.175781" xlink:href="#DejaVuSans-68"/>
      <use x="1037.177734" xlink:href="#DejaVuSans-105"/>
      <use x="1064.960938" xlink:href="#DejaVuSans-115"/>
      <use x="1117.060547" xlink:href="#DejaVuSans-116"/>
      <use x="1156.269531" xlink:href="#DejaVuSans-97"/>
      <use x="1217.548828" xlink:href="#DejaVuSans-110"/>
      <use x="1280.927734" xlink:href="#DejaVuSans-99"/>
      <use x="1335.908203" xlink:href="#DejaVuSans-101"/>
     </g>
    </g>
   </g>
   <g id="line2d_25">
    <path clip-path="url(#pe0d679883b)" d="M 71.15961 404.06232 
L 376.37686 173.579145 
L 376.37686 173.579145 
" style="fill:none;stroke:#1f77b4;stroke-linecap:square;stroke-width:1.5;"/>
   </g>
   <g id="line2d_26">
    <path clip-path="url(#pe0d679883b)" d="M 376.37686 163.955133 
L 578.114489 56.554663 
L 578.114489 56.554663 
" style="fill:none;stroke:#ff7f0e;stroke-linecap:square;stroke-width:1.5;"/>
   </g>
   <g id="line2d_27">
    <path clip-path="url(#pe0d679883b)" d="M 71.15961 478.261329 
L 407.147926 224.541548 
L 407.147926 224.541548 
" style="fill:none;stroke:#2ca02c;stroke-linecap:square;stroke-width:1.5;"/>
   </g>
   <g id="line2d_28">
    <path clip-path="url(#pe0d679883b)" d="M 407.147926 210.364835 
L 578.114489 124.295178 
L 578.114489 124.295178 
" style="fill:none;stroke:#d62728;stroke-linecap:square;stroke-width:1.5;"/>
   </g>
   <g id="line2d_29">
    <path clip-path="url(#pe0d679883b)" d="M 71.15961 526.090909 
L 407.147926 272.371128 
L 407.147926 272.371128 
" style="fill:none;stroke:#9467bd;stroke-linecap:square;stroke-width:1.5;"/>
   </g>
   <g id="line2d_30">
    <path clip-path="url(#pe0d679883b)" d="M 407.147926 242.129386 
L 578.114489 156.059728 
L 578.114489 156.059728 
" style="fill:none;stroke:#8c564b;stroke-linecap:square;stroke-width:1.5;"/>
   </g>
   <g id="line2d_31">
    <path clip-path="url(#pe0d679883b)" d="M 223.768235 257.134964 
L 243.154667 246.482407 
L 262.823849 235.418787 
L 282.909033 223.866796 
L 303.778416 211.604254 
L 325.0757 198.831529 
L 347.276305 185.254308 
L 370.177689 170.98445 
L 393.991207 155.880493 
L 418.773613 139.894716 
L 444.629915 122.947918 
L 471.658714 104.963989 
L 500.042002 85.809685 
L 530.056729 65.283471 
L 561.844052 43.27317 
L 578.114489 31.909091 
L 578.114489 31.909091 
" style="fill:none;stroke:#e377c2;stroke-linecap:square;stroke-width:1.5;"/>
   </g>
   <g id="patch_3">
    <path d="M 45.478125 550.8 
L 45.478125 7.2 
" style="fill:none;stroke:#000000;stroke-linecap:square;stroke-linejoin:miter;stroke-width:0.8;"/>
   </g>
   <g id="patch_4">
    <path d="M 603.478125 550.8 
L 603.478125 7.2 
" style="fill:none;"/>
   </g>
   <g id="patch_5">
    <path d="M 45.478125 550.8 
L 603.478125 550.8 
" style="fill:none;stroke:#000000;stroke-linecap:square;stroke-linejoin:miter;stroke-width:0.8;"/>
   </g>
   <g id="patch_6">
    <path d="M 45.478125 7.2 
L 603.478125 7.2 
" style="fill:none;"/>
   </g>
   <g id="legend_1">
    <g id="patch_7">
     <path d="M 52.478125 132.66875 
L 338.578125 132.66875 
Q 340.578125 132.66875 340.578125 130.66875 
L 340.578125 14.2 
Q 340.578125 12.2 338.578125 12.2 
L 52.478125 12.2 
Q 50.478125 12.2 50.478125 14.2 
L 50.478125 130.66875 
Q 50.478125 132.66875 52.478125 132.66875 
z
" style="fill:#ffffff;opacity:0.8;stroke:#cccccc;stroke-linejoin:miter;"/>
    </g>
    <g id="line2d_32">
     <path d="M 54.478125 20.298438 
L 74.478125 20.298438 
" style="fill:none;stroke:#1f77b4;stroke-linecap:square;stroke-width:1.5;"/>
    </g>
    <g id="line2d_33"/>
    <g id="text_6">
     <!-- Staron(2005), DEM, a&lt;2 -->
     <defs>
      <path d="M 53.515625 70.515625 
L 53.515625 60.890625 
Q 47.90625 63.578125 42.921875 64.890625 
Q 37.9375 66.21875 33.296875 66.21875 
Q 25.25 66.21875 20.875 63.09375 
Q 16.5 59.96875 16.5 54.203125 
Q 16.5 49.359375 19.40625 46.890625 
Q 22.3125 44.4375 30.421875 42.921875 
L 36.375 41.703125 
Q 47.40625 39.59375 52.65625 34.296875 
Q 57.90625 29 57.90625 20.125 
Q 57.90625 9.515625 50.796875 4.046875 
Q 43.703125 -1.421875 29.984375 -1.421875 
Q 24.8125 -1.421875 18.96875 -0.25 
Q 13.140625 0.921875 6.890625 3.21875 
L 6.890625 13.375 
Q 12.890625 10.015625 18.65625 8.296875 
Q 24.421875 6.59375 29.984375 6.59375 
Q 38.421875 6.59375 43.015625 9.90625 
Q 47.609375 13.234375 47.609375 19.390625 
Q 47.609375 24.75 44.3125 27.78125 
Q 41.015625 30.8125 33.5 32.328125 
L 27.484375 33.5 
Q 16.453125 35.6875 11.515625 40.375 
Q 6.59375 45.0625 6.59375 53.421875 
Q 6.59375 63.09375 13.40625 68.65625 
Q 20.21875 74.21875 32.171875 74.21875 
Q 37.3125 74.21875 42.625 73.28125 
Q 47.953125 72.359375 53.515625 70.515625 
z
" id="DejaVuSans-83"/>
      <path d="M 31 75.875 
Q 24.46875 64.65625 21.28125 53.65625 
Q 18.109375 42.671875 18.109375 31.390625 
Q 18.109375 20.125 21.3125 9.0625 
Q 24.515625 -2 31 -13.1875 
L 23.1875 -13.1875 
Q 15.875 -1.703125 12.234375 9.375 
Q 8.59375 20.453125 8.59375 31.390625 
Q 8.59375 42.28125 12.203125 53.3125 
Q 15.828125 64.359375 23.1875 75.875 
z
" id="DejaVuSans-40"/>
      <path d="M 19.1875 8.296875 
L 53.609375 8.296875 
L 53.609375 0 
L 7.328125 0 
L 7.328125 8.296875 
Q 12.9375 14.109375 22.625 23.890625 
Q 32.328125 33.6875 34.8125 36.53125 
Q 39.546875 41.84375 41.421875 45.53125 
Q 43.3125 49.21875 43.3125 52.78125 
Q 43.3125 58.59375 39.234375 62.25 
Q 35.15625 65.921875 28.609375 65.921875 
Q 23.96875 65.921875 18.8125 64.3125 
Q 13.671875 62.703125 7.8125 59.421875 
L 7.8125 69.390625 
Q 13.765625 71.78125 18.9375 73 
Q 24.125 74.21875 28.421875 74.21875 
Q 39.75 74.21875 46.484375 68.546875 
Q 53.21875 62.890625 53.21875 53.421875 
Q 53.21875 48.921875 51.53125 44.890625 
Q 49.859375 40.875 45.40625 35.40625 
Q 44.1875 33.984375 37.640625 27.21875 
Q 31.109375 20.453125 19.1875 8.296875 
z
" id="DejaVuSans-50"/>
      <path d="M 10.796875 72.90625 
L 49.515625 72.90625 
L 49.515625 64.59375 
L 19.828125 64.59375 
L 19.828125 46.734375 
Q 21.96875 47.46875 24.109375 47.828125 
Q 26.265625 48.1875 28.421875 48.1875 
Q 40.625 48.1875 47.75 41.5 
Q 54.890625 34.8125 54.890625 23.390625 
Q 54.890625 11.625 47.5625 5.09375 
Q 40.234375 -1.421875 26.90625 -1.421875 
Q 22.3125 -1.421875 17.546875 -0.640625 
Q 12.796875 0.140625 7.71875 1.703125 
L 7.71875 11.625 
Q 12.109375 9.234375 16.796875 8.0625 
Q 21.484375 6.890625 26.703125 6.890625 
Q 35.15625 6.890625 40.078125 11.328125 
Q 45.015625 15.765625 45.015625 23.390625 
Q 45.015625 31 40.078125 35.4375 
Q 35.15625 39.890625 26.703125 39.890625 
Q 22.75 39.890625 18.8125 39.015625 
Q 14.890625 38.140625 10.796875 36.28125 
z
" id="DejaVuSans-53"/>
      <path d="M 8.015625 75.875 
L 15.828125 75.875 
Q 23.140625 64.359375 26.78125 53.3125 
Q 30.421875 42.28125 30.421875 31.390625 
Q 30.421875 20.453125 26.78125 9.375 
Q 23.140625 -1.703125 15.828125 -13.1875 
L 8.015625 -13.1875 
Q 14.5 -2 17.703125 9.0625 
Q 20.90625 20.125 20.90625 31.390625 
Q 20.90625 42.671875 17.703125 53.65625 
Q 14.5 64.65625 8.015625 75.875 
z
" id="DejaVuSans-41"/>
      <path d="M 11.71875 12.40625 
L 22.015625 12.40625 
L 22.015625 4 
L 14.015625 -11.625 
L 7.71875 -11.625 
L 11.71875 4 
z
" id="DejaVuSans-44"/>
      <path d="M 9.8125 72.90625 
L 55.90625 72.90625 
L 55.90625 64.59375 
L 19.671875 64.59375 
L 19.671875 43.015625 
L 54.390625 43.015625 
L 54.390625 34.71875 
L 19.671875 34.71875 
L 19.671875 8.296875 
L 56.78125 8.296875 
L 56.78125 0 
L 9.8125 0 
z
" id="DejaVuSans-69"/>
      <path d="M 9.8125 72.90625 
L 24.515625 72.90625 
L 43.109375 23.296875 
L 61.8125 72.90625 
L 76.515625 72.90625 
L 76.515625 0 
L 66.890625 0 
L 66.890625 64.015625 
L 48.09375 14.015625 
L 38.1875 14.015625 
L 19.390625 64.015625 
L 19.390625 0 
L 9.8125 0 
z
" id="DejaVuSans-77"/>
      <path d="M 73.1875 49.21875 
L 22.796875 31.296875 
L 73.1875 13.484375 
L 73.1875 4.59375 
L 10.59375 27.296875 
L 10.59375 35.40625 
L 73.1875 58.109375 
z
" id="DejaVuSans-60"/>
     </defs>
     <g transform="translate(82.478125 23.798438)scale(0.1 -0.1)">
      <use xlink:href="#DejaVuSans-83"/>
      <use x="63.476562" xlink:href="#DejaVuSans-116"/>
      <use x="102.685547" xlink:href="#DejaVuSans-97"/>
      <use x="163.964844" xlink:href="#DejaVuSans-114"/>
      <use x="205.046875" xlink:href="#DejaVuSans-111"/>
      <use x="266.228516" xlink:href="#DejaVuSans-110"/>
      <use x="329.607422" xlink:href="#DejaVuSans-40"/>
      <use x="368.621094" xlink:href="#DejaVuSans-50"/>
      <use x="432.244141" xlink:href="#DejaVuSans-48"/>
      <use x="495.867188" xlink:href="#DejaVuSans-48"/>
      <use x="559.490234" xlink:href="#DejaVuSans-53"/>
      <use x="623.113281" xlink:href="#DejaVuSans-41"/>
      <use x="662.126953" xlink:href="#DejaVuSans-44"/>
      <use x="693.914062" xlink:href="#DejaVuSans-32"/>
      <use x="725.701172" xlink:href="#DejaVuSans-68"/>
      <use x="802.703125" xlink:href="#DejaVuSans-69"/>
      <use x="865.886719" xlink:href="#DejaVuSans-77"/>
      <use x="952.166016" xlink:href="#DejaVuSans-44"/>
      <use x="983.953125" xlink:href="#DejaVuSans-32"/>
      <use x="1015.740234" xlink:href="#DejaVuSans-97"/>
      <use x="1077.019531" xlink:href="#DejaVuSans-60"/>
      <use x="1160.808594" xlink:href="#DejaVuSans-50"/>
     </g>
    </g>
    <g id="line2d_34">
     <path d="M 54.478125 34.976563 
L 74.478125 34.976563 
" style="fill:none;stroke:#ff7f0e;stroke-linecap:square;stroke-width:1.5;"/>
    </g>
    <g id="line2d_35"/>
    <g id="text_7">
     <!-- Staron(2005), DEM, a&gt;2 -->
     <defs>
      <path d="M 10.59375 49.21875 
L 10.59375 58.109375 
L 73.1875 35.40625 
L 73.1875 27.296875 
L 10.59375 4.59375 
L 10.59375 13.484375 
L 60.890625 31.296875 
z
" id="DejaVuSans-62"/>
     </defs>
     <g transform="translate(82.478125 38.476563)scale(0.1 -0.1)">
      <use xlink:href="#DejaVuSans-83"/>
      <use x="63.476562" xlink:href="#DejaVuSans-116"/>
      <use x="102.685547" xlink:href="#DejaVuSans-97"/>
      <use x="163.964844" xlink:href="#DejaVuSans-114"/>
      <use x="205.046875" xlink:href="#DejaVuSans-111"/>
      <use x="266.228516" xlink:href="#DejaVuSans-110"/>
      <use x="329.607422" xlink:href="#DejaVuSans-40"/>
      <use x="368.621094" xlink:href="#DejaVuSans-50"/>
      <use x="432.244141" xlink:href="#DejaVuSans-48"/>
      <use x="495.867188" xlink:href="#DejaVuSans-48"/>
      <use x="559.490234" xlink:href="#DejaVuSans-53"/>
      <use x="623.113281" xlink:href="#DejaVuSans-41"/>
      <use x="662.126953" xlink:href="#DejaVuSans-44"/>
      <use x="693.914062" xlink:href="#DejaVuSans-32"/>
      <use x="725.701172" xlink:href="#DejaVuSans-68"/>
      <use x="802.703125" xlink:href="#DejaVuSans-69"/>
      <use x="865.886719" xlink:href="#DejaVuSans-77"/>
      <use x="952.166016" xlink:href="#DejaVuSans-44"/>
      <use x="983.953125" xlink:href="#DejaVuSans-32"/>
      <use x="1015.740234" xlink:href="#DejaVuSans-97"/>
      <use x="1077.019531" xlink:href="#DejaVuSans-62"/>
      <use x="1160.808594" xlink:href="#DejaVuSans-50"/>
     </g>
    </g>
    <g id="line2d_36">
     <path d="M 54.478125 49.654688 
L 74.478125 49.654688 
" style="fill:none;stroke:#2ca02c;stroke-linecap:square;stroke-width:1.5;"/>
    </g>
    <g id="line2d_37"/>
    <g id="text_8">
     <!-- Lube(2005), Series A, DEM, a&lt;2.3 -->
     <defs>
      <path d="M 9.8125 72.90625 
L 19.671875 72.90625 
L 19.671875 8.296875 
L 55.171875 8.296875 
L 55.171875 0 
L 9.8125 0 
z
" id="DejaVuSans-76"/>
      <path d="M 48.6875 27.296875 
Q 48.6875 37.203125 44.609375 42.84375 
Q 40.53125 48.484375 33.40625 48.484375 
Q 26.265625 48.484375 22.1875 42.84375 
Q 18.109375 37.203125 18.109375 27.296875 
Q 18.109375 17.390625 22.1875 11.75 
Q 26.265625 6.109375 33.40625 6.109375 
Q 40.53125 6.109375 44.609375 11.75 
Q 48.6875 17.390625 48.6875 27.296875 
z
M 18.109375 46.390625 
Q 20.953125 51.265625 25.265625 53.625 
Q 29.59375 56 35.59375 56 
Q 45.5625 56 51.78125 48.09375 
Q 58.015625 40.1875 58.015625 27.296875 
Q 58.015625 14.40625 51.78125 6.484375 
Q 45.5625 -1.421875 35.59375 -1.421875 
Q 29.59375 -1.421875 25.265625 0.953125 
Q 20.953125 3.328125 18.109375 8.203125 
L 18.109375 0 
L 9.078125 0 
L 9.078125 75.984375 
L 18.109375 75.984375 
z
" id="DejaVuSans-98"/>
      <path d="M 34.1875 63.1875 
L 20.796875 26.90625 
L 47.609375 26.90625 
z
M 28.609375 72.90625 
L 39.796875 72.90625 
L 67.578125 0 
L 57.328125 0 
L 50.6875 18.703125 
L 17.828125 18.703125 
L 11.1875 0 
L 0.78125 0 
z
" id="DejaVuSans-65"/>
      <path d="M 10.6875 12.40625 
L 21 12.40625 
L 21 0 
L 10.6875 0 
z
" id="DejaVuSans-46"/>
      <path d="M 40.578125 39.3125 
Q 47.65625 37.796875 51.625 33 
Q 55.609375 28.21875 55.609375 21.1875 
Q 55.609375 10.40625 48.1875 4.484375 
Q 40.765625 -1.421875 27.09375 -1.421875 
Q 22.515625 -1.421875 17.65625 -0.515625 
Q 12.796875 0.390625 7.625 2.203125 
L 7.625 11.71875 
Q 11.71875 9.328125 16.59375 8.109375 
Q 21.484375 6.890625 26.8125 6.890625 
Q 36.078125 6.890625 40.9375 10.546875 
Q 45.796875 14.203125 45.796875 21.1875 
Q 45.796875 27.640625 41.28125 31.265625 
Q 36.765625 34.90625 28.71875 34.90625 
L 20.21875 34.90625 
L 20.21875 43.015625 
L 29.109375 43.015625 
Q 36.375 43.015625 40.234375 45.921875 
Q 44.09375 48.828125 44.09375 54.296875 
Q 44.09375 59.90625 40.109375 62.90625 
Q 36.140625 65.921875 28.71875 65.921875 
Q 24.65625 65.921875 20.015625 65.03125 
Q 15.375 64.15625 9.8125 62.3125 
L 9.8125 71.09375 
Q 15.4375 72.65625 20.34375 73.4375 
Q 25.25 74.21875 29.59375 74.21875 
Q 40.828125 74.21875 47.359375 69.109375 
Q 53.90625 64.015625 53.90625 55.328125 
Q 53.90625 49.265625 50.4375 45.09375 
Q 46.96875 40.921875 40.578125 39.3125 
z
" id="DejaVuSans-51"/>
     </defs>
     <g transform="translate(82.478125 53.154688)scale(0.1 -0.1)">
      <use xlink:href="#DejaVuSans-76"/>
      <use x="55.697266" xlink:href="#DejaVuSans-117"/>
      <use x="119.076172" xlink:href="#DejaVuSans-98"/>
      <use x="182.552734" xlink:href="#DejaVuSans-101"/>
      <use x="244.076172" xlink:href="#DejaVuSans-40"/>
      <use x="283.089844" xlink:href="#DejaVuSans-50"/>
      <use x="346.712891" xlink:href="#DejaVuSans-48"/>
      <use x="410.335938" xlink:href="#DejaVuSans-48"/>
      <use x="473.958984" xlink:href="#DejaVuSans-53"/>
      <use x="537.582031" xlink:href="#DejaVuSans-41"/>
      <use x="576.595703" xlink:href="#DejaVuSans-44"/>
      <use x="608.382812" xlink:href="#DejaVuSans-32"/>
      <use x="640.169922" xlink:href="#DejaVuSans-83"/>
      <use x="703.646484" xlink:href="#DejaVuSans-101"/>
      <use x="765.169922" xlink:href="#DejaVuSans-114"/>
      <use x="806.283203" xlink:href="#DejaVuSans-105"/>
      <use x="834.066406" xlink:href="#DejaVuSans-101"/>
      <use x="895.589844" xlink:href="#DejaVuSans-115"/>
      <use x="947.689453" xlink:href="#DejaVuSans-32"/>
      <use x="979.476562" xlink:href="#DejaVuSans-65"/>
      <use x="1047.884766" xlink:href="#DejaVuSans-44"/>
      <use x="1079.671875" xlink:href="#DejaVuSans-32"/>
      <use x="1111.458984" xlink:href="#DejaVuSans-68"/>
      <use x="1188.460938" xlink:href="#DejaVuSans-69"/>
      <use x="1251.644531" xlink:href="#DejaVuSans-77"/>
      <use x="1337.923828" xlink:href="#DejaVuSans-44"/>
      <use x="1369.710938" xlink:href="#DejaVuSans-32"/>
      <use x="1401.498047" xlink:href="#DejaVuSans-97"/>
      <use x="1462.777344" xlink:href="#DejaVuSans-60"/>
      <use x="1546.566406" xlink:href="#DejaVuSans-50"/>
      <use x="1610.189453" xlink:href="#DejaVuSans-46"/>
      <use x="1641.976562" xlink:href="#DejaVuSans-51"/>
     </g>
    </g>
    <g id="line2d_38">
     <path d="M 54.478125 64.332813 
L 74.478125 64.332813 
" style="fill:none;stroke:#d62728;stroke-linecap:square;stroke-width:1.5;"/>
    </g>
    <g id="line2d_39"/>
    <g id="text_9">
     <!-- Lube(2005), Series A, DEM, a&gt;2.3 -->
     <g transform="translate(82.478125 67.832813)scale(0.1 -0.1)">
      <use xlink:href="#DejaVuSans-76"/>
      <use x="55.697266" xlink:href="#DejaVuSans-117"/>
      <use x="119.076172" xlink:href="#DejaVuSans-98"/>
      <use x="182.552734" xlink:href="#DejaVuSans-101"/>
      <use x="244.076172" xlink:href="#DejaVuSans-40"/>
      <use x="283.089844" xlink:href="#DejaVuSans-50"/>
      <use x="346.712891" xlink:href="#DejaVuSans-48"/>
      <use x="410.335938" xlink:href="#DejaVuSans-48"/>
      <use x="473.958984" xlink:href="#DejaVuSans-53"/>
      <use x="537.582031" xlink:href="#DejaVuSans-41"/>
      <use x="576.595703" xlink:href="#DejaVuSans-44"/>
      <use x="608.382812" xlink:href="#DejaVuSans-32"/>
      <use x="640.169922" xlink:href="#DejaVuSans-83"/>
      <use x="703.646484" xlink:href="#DejaVuSans-101"/>
      <use x="765.169922" xlink:href="#DejaVuSans-114"/>
      <use x="806.283203" xlink:href="#DejaVuSans-105"/>
      <use x="834.066406" xlink:href="#DejaVuSans-101"/>
      <use x="895.589844" xlink:href="#DejaVuSans-115"/>
      <use x="947.689453" xlink:href="#DejaVuSans-32"/>
      <use x="979.476562" xlink:href="#DejaVuSans-65"/>
      <use x="1047.884766" xlink:href="#DejaVuSans-44"/>
      <use x="1079.671875" xlink:href="#DejaVuSans-32"/>
      <use x="1111.458984" xlink:href="#DejaVuSans-68"/>
      <use x="1188.460938" xlink:href="#DejaVuSans-69"/>
      <use x="1251.644531" xlink:href="#DejaVuSans-77"/>
      <use x="1337.923828" xlink:href="#DejaVuSans-44"/>
      <use x="1369.710938" xlink:href="#DejaVuSans-32"/>
      <use x="1401.498047" xlink:href="#DejaVuSans-97"/>
      <use x="1462.777344" xlink:href="#DejaVuSans-62"/>
      <use x="1546.566406" xlink:href="#DejaVuSans-50"/>
      <use x="1610.189453" xlink:href="#DejaVuSans-46"/>
      <use x="1641.976562" xlink:href="#DejaVuSans-51"/>
     </g>
    </g>
    <g id="line2d_40">
     <path d="M 54.478125 79.010938 
L 74.478125 79.010938 
" style="fill:none;stroke:#9467bd;stroke-linecap:square;stroke-width:1.5;"/>
    </g>
    <g id="line2d_41"/>
    <g id="text_10">
     <!-- Lube(2005), Series B, DEM, a&lt;2.3 -->
     <defs>
      <path d="M 19.671875 34.8125 
L 19.671875 8.109375 
L 35.5 8.109375 
Q 43.453125 8.109375 47.28125 11.40625 
Q 51.125 14.703125 51.125 21.484375 
Q 51.125 28.328125 47.28125 31.5625 
Q 43.453125 34.8125 35.5 34.8125 
z
M 19.671875 64.796875 
L 19.671875 42.828125 
L 34.28125 42.828125 
Q 41.5 42.828125 45.03125 45.53125 
Q 48.578125 48.25 48.578125 53.8125 
Q 48.578125 59.328125 45.03125 62.0625 
Q 41.5 64.796875 34.28125 64.796875 
z
M 9.8125 72.90625 
L 35.015625 72.90625 
Q 46.296875 72.90625 52.390625 68.21875 
Q 58.5 63.53125 58.5 54.890625 
Q 58.5 48.1875 55.375 44.234375 
Q 52.25 40.28125 46.1875 39.3125 
Q 53.46875 37.75 57.5 32.78125 
Q 61.53125 27.828125 61.53125 20.40625 
Q 61.53125 10.640625 54.890625 5.3125 
Q 48.25 0 35.984375 0 
L 9.8125 0 
z
" id="DejaVuSans-66"/>
     </defs>
     <g transform="translate(82.478125 82.510938)scale(0.1 -0.1)">
      <use xlink:href="#DejaVuSans-76"/>
      <use x="55.697266" xlink:href="#DejaVuSans-117"/>
      <use x="119.076172" xlink:href="#DejaVuSans-98"/>
      <use x="182.552734" xlink:href="#DejaVuSans-101"/>
      <use x="244.076172" xlink:href="#DejaVuSans-40"/>
      <use x="283.089844" xlink:href="#DejaVuSans-50"/>
      <use x="346.712891" xlink:href="#DejaVuSans-48"/>
      <use x="410.335938" xlink:href="#DejaVuSans-48"/>
      <use x="473.958984" xlink:href="#DejaVuSans-53"/>
      <use x="537.582031" xlink:href="#DejaVuSans-41"/>
      <use x="576.595703" xlink:href="#DejaVuSans-44"/>
      <use x="608.382812" xlink:href="#DejaVuSans-32"/>
      <use x="640.169922" xlink:href="#DejaVuSans-83"/>
      <use x="703.646484" xlink:href="#DejaVuSans-101"/>
      <use x="765.169922" xlink:href="#DejaVuSans-114"/>
      <use x="806.283203" xlink:href="#DejaVuSans-105"/>
      <use x="834.066406" xlink:href="#DejaVuSans-101"/>
      <use x="895.589844" xlink:href="#DejaVuSans-115"/>
      <use x="947.689453" xlink:href="#DejaVuSans-32"/>
      <use x="979.476562" xlink:href="#DejaVuSans-66"/>
      <use x="1048.080078" xlink:href="#DejaVuSans-44"/>
      <use x="1079.867188" xlink:href="#DejaVuSans-32"/>
      <use x="1111.654297" xlink:href="#DejaVuSans-68"/>
      <use x="1188.65625" xlink:href="#DejaVuSans-69"/>
      <use x="1251.839844" xlink:href="#DejaVuSans-77"/>
      <use x="1338.119141" xlink:href="#DejaVuSans-44"/>
      <use x="1369.90625" xlink:href="#DejaVuSans-32"/>
      <use x="1401.693359" xlink:href="#DejaVuSans-97"/>
      <use x="1462.972656" xlink:href="#DejaVuSans-60"/>
      <use x="1546.761719" xlink:href="#DejaVuSans-50"/>
      <use x="1610.384766" xlink:href="#DejaVuSans-46"/>
      <use x="1642.171875" xlink:href="#DejaVuSans-51"/>
     </g>
    </g>
    <g id="line2d_42">
     <path d="M 54.478125 93.689063 
L 74.478125 93.689063 
" style="fill:none;stroke:#8c564b;stroke-linecap:square;stroke-width:1.5;"/>
    </g>
    <g id="line2d_43"/>
    <g id="text_11">
     <!-- Lube(2005), Series B, DEM, a&gt;2.3 -->
     <g transform="translate(82.478125 97.189063)scale(0.1 -0.1)">
      <use xlink:href="#DejaVuSans-76"/>
      <use x="55.697266" xlink:href="#DejaVuSans-117"/>
      <use x="119.076172" xlink:href="#DejaVuSans-98"/>
      <use x="182.552734" xlink:href="#DejaVuSans-101"/>
      <use x="244.076172" xlink:href="#DejaVuSans-40"/>
      <use x="283.089844" xlink:href="#DejaVuSans-50"/>
      <use x="346.712891" xlink:href="#DejaVuSans-48"/>
      <use x="410.335938" xlink:href="#DejaVuSans-48"/>
      <use x="473.958984" xlink:href="#DejaVuSans-53"/>
      <use x="537.582031" xlink:href="#DejaVuSans-41"/>
      <use x="576.595703" xlink:href="#DejaVuSans-44"/>
      <use x="608.382812" xlink:href="#DejaVuSans-32"/>
      <use x="640.169922" xlink:href="#DejaVuSans-83"/>
      <use x="703.646484" xlink:href="#DejaVuSans-101"/>
      <use x="765.169922" xlink:href="#DejaVuSans-114"/>
      <use x="806.283203" xlink:href="#DejaVuSans-105"/>
      <use x="834.066406" xlink:href="#DejaVuSans-101"/>
      <use x="895.589844" xlink:href="#DejaVuSans-115"/>
      <use x="947.689453" xlink:href="#DejaVuSans-32"/>
      <use x="979.476562" xlink:href="#DejaVuSans-66"/>
      <use x="1048.080078" xlink:href="#DejaVuSans-44"/>
      <use x="1079.867188" xlink:href="#DejaVuSans-32"/>
      <use x="1111.654297" xlink:href="#DejaVuSans-68"/>
      <use x="1188.65625" xlink:href="#DejaVuSans-69"/>
      <use x="1251.839844" xlink:href="#DejaVuSans-77"/>
      <use x="1338.119141" xlink:href="#DejaVuSans-44"/>
      <use x="1369.90625" xlink:href="#DejaVuSans-32"/>
      <use x="1401.693359" xlink:href="#DejaVuSans-97"/>
      <use x="1462.972656" xlink:href="#DejaVuSans-62"/>
      <use x="1546.761719" xlink:href="#DejaVuSans-50"/>
      <use x="1610.384766" xlink:href="#DejaVuSans-46"/>
      <use x="1642.171875" xlink:href="#DejaVuSans-51"/>
     </g>
    </g>
    <g id="line2d_44">
     <path d="M 54.478125 108.36875 
L 74.478125 108.36875 
" style="fill:none;stroke:#e377c2;stroke-linecap:square;stroke-width:1.5;"/>
    </g>
    <g id="line2d_45"/>
    <g id="text_12">
     <!-- CB-Geo MPM, $\phi$=33, friction=0.3, linear regression -->
     <defs>
      <path d="M 64.40625 67.28125 
L 64.40625 56.890625 
Q 59.421875 61.53125 53.78125 63.8125 
Q 48.140625 66.109375 41.796875 66.109375 
Q 29.296875 66.109375 22.65625 58.46875 
Q 16.015625 50.828125 16.015625 36.375 
Q 16.015625 21.96875 22.65625 14.328125 
Q 29.296875 6.6875 41.796875 6.6875 
Q 48.140625 6.6875 53.78125 8.984375 
Q 59.421875 11.28125 64.40625 15.921875 
L 64.40625 5.609375 
Q 59.234375 2.09375 53.4375 0.328125 
Q 47.65625 -1.421875 41.21875 -1.421875 
Q 24.65625 -1.421875 15.125 8.703125 
Q 5.609375 18.84375 5.609375 36.375 
Q 5.609375 53.953125 15.125 64.078125 
Q 24.65625 74.21875 41.21875 74.21875 
Q 47.75 74.21875 53.53125 72.484375 
Q 59.328125 70.75 64.40625 67.28125 
z
" id="DejaVuSans-67"/>
      <path d="M 4.890625 31.390625 
L 31.203125 31.390625 
L 31.203125 23.390625 
L 4.890625 23.390625 
z
" id="DejaVuSans-45"/>
      <path d="M 59.515625 10.40625 
L 59.515625 29.984375 
L 43.40625 29.984375 
L 43.40625 38.09375 
L 69.28125 38.09375 
L 69.28125 6.78125 
Q 63.578125 2.734375 56.6875 0.65625 
Q 49.8125 -1.421875 42 -1.421875 
Q 24.90625 -1.421875 15.25 8.5625 
Q 5.609375 18.5625 5.609375 36.375 
Q 5.609375 54.25 15.25 64.234375 
Q 24.90625 74.21875 42 74.21875 
Q 49.125 74.21875 55.546875 72.453125 
Q 61.96875 70.703125 67.390625 67.28125 
L 67.390625 56.78125 
Q 61.921875 61.421875 55.765625 63.765625 
Q 49.609375 66.109375 42.828125 66.109375 
Q 29.4375 66.109375 22.71875 58.640625 
Q 16.015625 51.171875 16.015625 36.375 
Q 16.015625 21.625 22.71875 14.15625 
Q 29.4375 6.6875 42.828125 6.6875 
Q 48.046875 6.6875 52.140625 7.59375 
Q 56.25 8.5 59.515625 10.40625 
z
" id="DejaVuSans-71"/>
      <path d="M 19.671875 64.796875 
L 19.671875 37.40625 
L 32.078125 37.40625 
Q 38.96875 37.40625 42.71875 40.96875 
Q 46.484375 44.53125 46.484375 51.125 
Q 46.484375 57.671875 42.71875 61.234375 
Q 38.96875 64.796875 32.078125 64.796875 
z
M 9.8125 72.90625 
L 32.078125 72.90625 
Q 44.34375 72.90625 50.609375 67.359375 
Q 56.890625 61.8125 56.890625 51.125 
Q 56.890625 40.328125 50.609375 34.8125 
Q 44.34375 29.296875 32.078125 29.296875 
L 19.671875 29.296875 
L 19.671875 0 
L 9.8125 0 
z
" id="DejaVuSans-80"/>
      <path d="M 46.734375 75.984375 
L 42.78125 55.8125 
Q 52.546875 55.8125 57.5625 48.34375 
Q 62.75 40.71875 60.15625 27.296875 
Q 57.515625 13.875 49.359375 6.25 
Q 41.453125 -1.21875 31.6875 -1.21875 
L 27.875 -20.796875 
L 18.953125 -20.796875 
L 22.75 -1.21875 
Q 13.03125 -1.21875 7.953125 6.25 
Q 2.78125 13.875 5.421875 27.296875 
Q 8.015625 40.71875 16.15625 48.34375 
Q 24.125 55.8125 33.84375 55.8125 
L 37.796875 75.984375 
z
M 33.25 6.78125 
Q 38.765625 6.78125 43.5 11.8125 
Q 48.6875 17.4375 50.6875 27.296875 
Q 52.640625 37.0625 49.515625 42.78125 
Q 46.734375 47.796875 41.21875 47.796875 
z
M 24.3125 6.78125 
L 32.28125 47.796875 
Q 26.8125 47.796875 22.078125 42.78125 
Q 16.75 37.0625 14.890625 27.296875 
Q 13.03125 17.4375 16.0625 11.8125 
Q 18.796875 6.78125 24.3125 6.78125 
z
" id="DejaVuSans-Oblique-981"/>
      <path d="M 10.59375 45.40625 
L 73.1875 45.40625 
L 73.1875 37.203125 
L 10.59375 37.203125 
z
M 10.59375 25.484375 
L 73.1875 25.484375 
L 73.1875 17.1875 
L 10.59375 17.1875 
z
" id="DejaVuSans-61"/>
      <path d="M 45.40625 27.984375 
Q 45.40625 37.75 41.375 43.109375 
Q 37.359375 48.484375 30.078125 48.484375 
Q 22.859375 48.484375 18.828125 43.109375 
Q 14.796875 37.75 14.796875 27.984375 
Q 14.796875 18.265625 18.828125 12.890625 
Q 22.859375 7.515625 30.078125 7.515625 
Q 37.359375 7.515625 41.375 12.890625 
Q 45.40625 18.265625 45.40625 27.984375 
z
M 54.390625 6.78125 
Q 54.390625 -7.171875 48.1875 -13.984375 
Q 42 -20.796875 29.203125 -20.796875 
Q 24.46875 -20.796875 20.265625 -20.09375 
Q 16.0625 -19.390625 12.109375 -17.921875 
L 12.109375 -9.1875 
Q 16.0625 -11.328125 19.921875 -12.34375 
Q 23.78125 -13.375 27.78125 -13.375 
Q 36.625 -13.375 41.015625 -8.765625 
Q 45.40625 -4.15625 45.40625 5.171875 
L 45.40625 9.625 
Q 42.625 4.78125 38.28125 2.390625 
Q 33.9375 0 27.875 0 
Q 17.828125 0 11.671875 7.65625 
Q 5.515625 15.328125 5.515625 27.984375 
Q 5.515625 40.671875 11.671875 48.328125 
Q 17.828125 56 27.875 56 
Q 33.9375 56 38.28125 53.609375 
Q 42.625 51.21875 45.40625 46.390625 
L 45.40625 54.6875 
L 54.390625 54.6875 
z
" id="DejaVuSans-103"/>
     </defs>
     <g transform="translate(82.478125 111.86875)scale(0.1 -0.1)">
      <use transform="translate(0 0.015625)" xlink:href="#DejaVuSans-67"/>
      <use transform="translate(69.824219 0.015625)" xlink:href="#DejaVuSans-66"/>
      <use transform="translate(138.427734 0.015625)" xlink:href="#DejaVuSans-45"/>
      <use transform="translate(174.511719 0.015625)" xlink:href="#DejaVuSans-71"/>
      <use transform="translate(252.001953 0.015625)" xlink:href="#DejaVuSans-101"/>
      <use transform="translate(313.525391 0.015625)" xlink:href="#DejaVuSans-111"/>
      <use transform="translate(374.707031 0.015625)" xlink:href="#DejaVuSans-32"/>
      <use transform="translate(406.494141 0.015625)" xlink:href="#DejaVuSans-77"/>
      <use transform="translate(492.773438 0.015625)" xlink:href="#DejaVuSans-80"/>
      <use transform="translate(553.076172 0.015625)" xlink:href="#DejaVuSans-77"/>
      <use transform="translate(639.355469 0.015625)" xlink:href="#DejaVuSans-44"/>
      <use transform="translate(671.142578 0.015625)" xlink:href="#DejaVuSans-32"/>
      <use transform="translate(702.929688 0.015625)" xlink:href="#DejaVuSans-Oblique-981"/>
      <use transform="translate(768.896484 0.015625)" xlink:href="#DejaVuSans-61"/>
      <use transform="translate(852.685547 0.015625)" xlink:href="#DejaVuSans-51"/>
      <use transform="translate(916.308594 0.015625)" xlink:href="#DejaVuSans-51"/>
      <use transform="translate(979.931641 0.015625)" xlink:href="#DejaVuSans-44"/>
      <use transform="translate(1011.71875 0.015625)" xlink:href="#DejaVuSans-32"/>
      <use transform="translate(1043.505859 0.015625)" xlink:href="#DejaVuSans-102"/>
      <use transform="translate(1078.710938 0.015625)" xlink:href="#DejaVuSans-114"/>
      <use transform="translate(1119.824219 0.015625)" xlink:href="#DejaVuSans-105"/>
      <use transform="translate(1147.607422 0.015625)" xlink:href="#DejaVuSans-99"/>
      <use transform="translate(1202.587891 0.015625)" xlink:href="#DejaVuSans-116"/>
      <use transform="translate(1241.796875 0.015625)" xlink:href="#DejaVuSans-105"/>
      <use transform="translate(1269.580078 0.015625)" xlink:href="#DejaVuSans-111"/>
      <use transform="translate(1330.761719 0.015625)" xlink:href="#DejaVuSans-110"/>
      <use transform="translate(1394.140625 0.015625)" xlink:href="#DejaVuSans-61"/>
      <use transform="translate(1477.929688 0.015625)" xlink:href="#DejaVuSans-48"/>
      <use transform="translate(1541.552734 0.015625)" xlink:href="#DejaVuSans-46"/>
      <use transform="translate(1573.339844 0.015625)" xlink:href="#DejaVuSans-51"/>
      <use transform="translate(1636.962891 0.015625)" xlink:href="#DejaVuSans-44"/>
      <use transform="translate(1668.75 0.015625)" xlink:href="#DejaVuSans-32"/>
      <use transform="translate(1700.537109 0.015625)" xlink:href="#DejaVuSans-108"/>
      <use transform="translate(1728.320312 0.015625)" xlink:href="#DejaVuSans-105"/>
      <use transform="translate(1756.103516 0.015625)" xlink:href="#DejaVuSans-110"/>
      <use transform="translate(1819.482422 0.015625)" xlink:href="#DejaVuSans-101"/>
      <use transform="translate(1881.005859 0.015625)" xlink:href="#DejaVuSans-97"/>
      <use transform="translate(1942.285156 0.015625)" xlink:href="#DejaVuSans-114"/>
      <use transform="translate(1983.398438 0.015625)" xlink:href="#DejaVuSans-32"/>
      <use transform="translate(2015.185547 0.015625)" xlink:href="#DejaVuSans-114"/>
      <use transform="translate(2056.298828 0.015625)" xlink:href="#DejaVuSans-101"/>
      <use transform="translate(2117.822266 0.015625)" xlink:href="#DejaVuSans-103"/>
      <use transform="translate(2181.298828 0.015625)" xlink:href="#DejaVuSans-114"/>
      <use transform="translate(2222.412109 0.015625)" xlink:href="#DejaVuSans-101"/>
      <use transform="translate(2283.935547 0.015625)" xlink:href="#DejaVuSans-115"/>
      <use transform="translate(2336.035156 0.015625)" xlink:href="#DejaVuSans-115"/>
      <use transform="translate(2388.134766 0.015625)" xlink:href="#DejaVuSans-105"/>
      <use transform="translate(2415.917969 0.015625)" xlink:href="#DejaVuSans-111"/>
      <use transform="translate(2477.099609 0.015625)" xlink:href="#DejaVuSans-110"/>
     </g>
    </g>
    <g id="PathCollection_2">
     <g>
      <use style="fill:#1f77b4;stroke:#1f77b4;" x="64.478125" xlink:href="#mf0691bde8e" y="123.94375"/>
     </g>
    </g>
    <g id="text_13">
     <!-- CB-Geo MPM, $\phi$=33, friction=0.3 -->
     <g transform="translate(82.478125 126.56875)scale(0.1 -0.1)">
      <use transform="translate(0 0.015625)" xlink:href="#DejaVuSans-67"/>
      <use transform="translate(69.824219 0.015625)" xlink:href="#DejaVuSans-66"/>
      <use transform="translate(138.427734 0.015625)" xlink:href="#DejaVuSans-45"/>
      <use transform="translate(174.511719 0.015625)" xlink:href="#DejaVuSans-71"/>
      <use transform="translate(252.001953 0.015625)" xlink:href="#DejaVuSans-101"/>
      <use transform="translate(313.525391 0.015625)" xlink:href="#DejaVuSans-111"/>
      <use transform="translate(374.707031 0.015625)" xlink:href="#DejaVuSans-32"/>
      <use transform="translate(406.494141 0.015625)" xlink:href="#DejaVuSans-77"/>
      <use transform="translate(492.773438 0.015625)" xlink:href="#DejaVuSans-80"/>
      <use transform="translate(553.076172 0.015625)" xlink:href="#DejaVuSans-77"/>
      <use transform="translate(639.355469 0.015625)" xlink:href="#DejaVuSans-44"/>
      <use transform="translate(671.142578 0.015625)" xlink:href="#DejaVuSans-32"/>
      <use transform="translate(702.929688 0.015625)" xlink:href="#DejaVuSans-Oblique-981"/>
      <use transform="translate(768.896484 0.015625)" xlink:href="#DejaVuSans-61"/>
      <use transform="translate(852.685547 0.015625)" xlink:href="#DejaVuSans-51"/>
      <use transform="translate(916.308594 0.015625)" xlink:href="#DejaVuSans-51"/>
      <use transform="translate(979.931641 0.015625)" xlink:href="#DejaVuSans-44"/>
      <use transform="translate(1011.71875 0.015625)" xlink:href="#DejaVuSans-32"/>
      <use transform="translate(1043.505859 0.015625)" xlink:href="#DejaVuSans-102"/>
      <use transform="translate(1078.710938 0.015625)" xlink:href="#DejaVuSans-114"/>
      <use transform="translate(1119.824219 0.015625)" xlink:href="#DejaVuSans-105"/>
      <use transform="translate(1147.607422 0.015625)" xlink:href="#DejaVuSans-99"/>
      <use transform="translate(1202.587891 0.015625)" xlink:href="#DejaVuSans-116"/>
      <use transform="translate(1241.796875 0.015625)" xlink:href="#DejaVuSans-105"/>
      <use transform="translate(1269.580078 0.015625)" xlink:href="#DejaVuSans-111"/>
      <use transform="translate(1330.761719 0.015625)" xlink:href="#DejaVuSans-110"/>
      <use transform="translate(1394.140625 0.015625)" xlink:href="#DejaVuSans-61"/>
      <use transform="translate(1477.929688 0.015625)" xlink:href="#DejaVuSans-48"/>
      <use transform="translate(1541.552734 0.015625)" xlink:href="#DejaVuSans-46"/>
      <use transform="translate(1573.339844 0.015625)" xlink:href="#DejaVuSans-51"/>
     </g>
    </g>
   </g>
  </g>
 </g>
 <defs>
  <clipPath id="pe0d679883b">
   <rect height="543.6" width="558" x="45.478125" y="7.2"/>
  </clipPath>
 </defs>
</svg>
